<svg width="64" height="64" xmlns="http://www.w3.org/2000/svg">

 <g>
  <title>background</title>
  <rect fill="none" id="canvas_background" height="402" width="582" y="-1" x="-1"/>
 </g>
 <g>
  <title>Layer 1</title>
  <path fill="#ffffff" stroke="#000000" stroke-opacity="0" id="svg_1" d="m23.726999,16.403l0,4.84l0,5.058001l0,14.235998c-1.268,-0.777 -2.754,-1.232998 -4.349998,-1.232998c-4.612,0 -8.353001,3.739998 -8.353001,8.348999c0,4.613998 3.74,8.354 8.353001,8.354c4.609999,0 8.348999,-3.738998 8.349998,-8.352001l0,0l0,-22.504l21.250002,-6.108999l0,14.288002c-1.268002,-0.777 -2.754002,-1.233002 -4.350002,-1.233002c-4.613998,0 -8.353001,3.738998 -8.353001,8.348c0,4.612999 3.739002,8.354 8.353001,8.354c4.344002,0 7.914001,-3.325001 8.310001,-7.57l0.040001,0l0,-23.337l0,-3.586l0,-6.313l-29.250002,8.41z"/>
 </g>
</svg>